<svg xmlns="http://www.w3.org/2000/svg" style="display:none">
  <symbol id="logo" viewBox="0 0 136 16">

<path d="M135.393 7.18757H131.785C131.766 6.96503 131.688 6.77327 131.55 6.61228C131.413 6.4513 131.235 6.32819 131.018 6.24296C130.804 6.153 130.568 6.10802 130.307 6.10802C129.971 6.10802 129.682 6.16957 129.441 6.29268C129.199 6.41579 129.081 6.59098 129.086 6.81825C129.081 6.97923 129.15 7.12838 129.292 7.26569C129.438 7.403 129.72 7.50954 130.137 7.58529L132.353 7.98302C133.47 8.18662 134.301 8.5299 134.846 9.01285C135.395 9.49107 135.672 10.1326 135.677 10.9376C135.672 11.7141 135.44 12.3888 134.981 12.9617C134.526 13.5299 133.903 13.9702 133.113 14.2827C132.327 14.5905 131.429 14.7444 130.421 14.7444C128.754 14.7444 127.45 14.4035 126.508 13.7217C125.57 13.0398 125.047 12.1402 124.938 11.0228H128.83C128.882 11.3684 129.053 11.636 129.341 11.8253C129.635 12.01 130.004 12.1023 130.449 12.1023C130.809 12.1023 131.105 12.0408 131.337 11.9177C131.574 11.7946 131.695 11.6194 131.699 11.3921C131.695 11.1838 131.59 11.0181 131.387 10.895C131.188 10.7718 130.875 10.6724 130.449 10.5967L128.518 10.2557C127.405 10.0616 126.572 9.6923 126.018 9.14779C125.464 8.60329 125.189 7.90253 125.194 7.04552C125.189 6.28795 125.388 5.64637 125.79 5.1208C126.197 4.5905 126.777 4.18804 127.53 3.91342C128.288 3.63406 129.185 3.49438 130.222 3.49438C131.799 3.49438 133.042 3.82109 133.951 4.4745C134.865 5.12791 135.345 6.03226 135.393 7.18757Z" fill="#475467"/>
<path d="M116.415 11.9602L116.443 7.30114H116.955L119.597 3.63636H124L119.568 9.34659H118.46L116.415 11.9602ZM112.892 14.5455V0H116.812V14.5455H112.892ZM119.625 14.5455L117.125 10.2273L119.682 7.44318L124.114 14.5455H119.625Z" fill="#475467"/>
<path d="M105.619 14.7444C104.435 14.7444 103.422 14.51 102.579 14.0413C101.736 13.5678 101.09 12.9096 100.64 12.0668C100.19 11.2193 99.9654 10.2368 99.9654 9.11938C99.9654 8.00196 100.19 7.02185 100.64 6.17904C101.09 5.3315 101.736 4.67336 102.579 4.20461C103.422 3.73113 104.435 3.49438 105.619 3.49438C106.689 3.49438 107.615 3.68851 108.396 4.07677C109.182 4.46029 109.79 5.0048 110.221 5.71029C110.652 6.41105 110.87 7.23491 110.874 8.18188H107.238C107.186 7.60897 107.02 7.17336 106.741 6.87507C106.466 6.57204 106.111 6.42052 105.676 6.42052C105.335 6.42052 105.036 6.51995 104.781 6.71882C104.525 6.91294 104.326 7.20887 104.184 7.6066C104.042 7.99959 103.971 8.49438 103.971 9.09097C103.971 9.68757 104.042 10.1847 104.184 10.5825C104.326 10.9754 104.525 11.2714 104.781 11.4702C105.036 11.6644 105.335 11.7614 105.676 11.7614C105.964 11.7614 106.22 11.6951 106.443 11.5626C106.665 11.4253 106.845 11.2264 106.982 10.966C107.124 10.7008 107.21 10.3789 107.238 10.0001H110.874C110.86 10.9612 110.64 11.7993 110.214 12.5143C109.788 13.2245 109.184 13.7737 108.403 14.162C107.626 14.5503 106.698 14.7444 105.619 14.7444Z" fill="#475467"/>
<path d="M94.0487 9.77284V3.63647H97.9692V14.5456H94.2476V12.4717H94.1339C93.8972 13.1677 93.4829 13.7122 92.8911 14.1052C92.2992 14.4935 91.5961 14.6876 90.7817 14.6876C90.0194 14.6876 89.3517 14.5124 88.7788 14.162C88.2106 13.8117 87.7679 13.3287 87.4507 12.7132C87.1382 12.0976 86.9796 11.3922 86.9749 10.5967V3.63647H90.8953V9.77284C90.9 10.3126 91.0374 10.7364 91.3072 11.0441C91.5819 11.3519 91.9654 11.5058 92.4578 11.5058C92.7845 11.5058 93.0662 11.4371 93.303 11.2998C93.5445 11.1578 93.7291 10.9589 93.857 10.7032C93.9895 10.4428 94.0535 10.1327 94.0487 9.77284Z" fill="#475467"/>
<path d="M77.903 14.5455V3.63643H81.7098V5.71029H81.8234C82.0223 4.94325 82.3371 4.38217 82.768 4.02705C83.2036 3.67194 83.7126 3.49438 84.295 3.49438C84.4655 3.49438 84.6335 3.50859 84.7993 3.537C84.9697 3.56067 85.1331 3.59618 85.2893 3.64353V6.9887C85.0952 6.92241 84.8561 6.8727 84.572 6.83955C84.2879 6.80641 84.0441 6.78984 83.8405 6.78984C83.4569 6.78984 83.1113 6.87743 82.8035 7.05262C82.5005 7.22308 82.2614 7.46455 82.0862 7.77705C81.911 8.08482 81.8234 8.44704 81.8234 8.8637V14.5455H77.903Z" fill="#475467"/>
<path d="M64.4508 3.18182V0H77.0928V3.18182H72.7178V14.5455H68.8258V3.18182H64.4508Z" fill="#475467"/>
<path d="M62.5078 0V14.5455H58.5873V0H62.5078Z" fill="#101828"/>
<path d="M51.2466 14.7444C50.0819 14.7444 49.0781 14.5218 48.2353 14.0768C47.3972 13.627 46.7509 12.983 46.2964 12.145C45.8465 11.3021 45.6216 10.2936 45.6216 9.11938C45.6216 7.99249 45.8489 7.00764 46.3035 6.16484C46.758 5.32204 47.3996 4.66626 48.2282 4.19751C49.0568 3.72876 50.0345 3.49438 51.1614 3.49438C51.9853 3.49438 52.731 3.62223 53.3986 3.87791C54.0662 4.13359 54.6368 4.50527 55.1103 4.99296C55.5838 5.47592 55.9483 6.06304 56.204 6.75433C56.4597 7.44562 56.5876 8.2245 56.5876 9.09097V10.0001H46.8432V7.84097H52.9796C52.9749 7.52847 52.8944 7.25385 52.7381 7.01711C52.5866 6.77563 52.3806 6.58861 52.1202 6.45603C51.8645 6.31872 51.5733 6.25007 51.2466 6.25007C50.9294 6.25007 50.6382 6.31872 50.3731 6.45603C50.1079 6.58861 49.8948 6.77327 49.7339 7.01001C49.5776 7.24675 49.4947 7.52374 49.4853 7.84097V10.1705C49.4853 10.5209 49.5587 10.8334 49.7054 11.108C49.8522 11.3826 50.0629 11.5981 50.3376 11.7543C50.6122 11.9106 50.9436 11.9887 51.3319 11.9887C51.6018 11.9887 51.848 11.9508 52.0705 11.8751C52.2978 11.7993 52.4919 11.6904 52.6529 11.5484C52.8139 11.4016 52.9322 11.2264 53.008 11.0228H56.5876C56.4644 11.7804 56.1733 12.4385 55.714 12.9972C55.2547 13.5512 54.6463 13.9821 53.8887 14.2898C53.1358 14.5929 52.2552 14.7444 51.2466 14.7444Z" fill="#101828"/>
<path d="M44.8364 3.63647L41.1716 14.5456H36.6261L32.9614 3.63647H37.0807L38.842 10.8524H38.9557L40.717 3.63647H44.8364Z" fill="#101828"/>
<path d="M25.056 14.716C24.36 14.716 23.7445 14.6023 23.2094 14.3751C22.6791 14.1431 22.2625 13.7927 21.9594 13.3239C21.6564 12.8552 21.5049 12.2586 21.5049 11.5342C21.5049 10.9376 21.6067 10.4286 21.8103 10.0072C22.0139 9.58103 22.298 9.23302 22.6626 8.96313C23.0271 8.69325 23.4509 8.48728 23.9339 8.34524C24.4216 8.20319 24.9471 8.11086 25.5106 8.06825C26.1214 8.0209 26.6114 7.96408 26.9807 7.89779C27.3548 7.82677 27.6247 7.72971 27.7904 7.6066C27.9561 7.47876 28.039 7.31067 28.039 7.10234V7.07393C28.039 6.78984 27.9301 6.57204 27.7123 6.42052C27.4945 6.26901 27.2151 6.19325 26.8742 6.19325C26.5001 6.19325 26.1948 6.27611 25.958 6.44183C25.726 6.60281 25.5863 6.85139 25.539 7.18757H21.931C21.9784 6.52469 22.1891 5.91389 22.5631 5.35518C22.9419 4.79173 23.4935 4.34192 24.218 4.00575C24.9424 3.66484 25.8467 3.49438 26.931 3.49438C27.7123 3.49438 28.413 3.58671 29.0333 3.77137C29.6536 3.9513 30.1815 4.20461 30.6171 4.53132C31.0527 4.85329 31.3841 5.23207 31.6114 5.66768C31.8434 6.09855 31.9594 6.5673 31.9594 7.07393V14.5455H28.2947V13.0114H28.2094C27.9916 13.4186 27.7265 13.7477 27.414 13.9986C27.1062 14.2496 26.7535 14.4319 26.3557 14.5455C25.9627 14.6592 25.5295 14.716 25.056 14.716ZM26.3344 12.2444C26.6327 12.2444 26.9121 12.1828 27.1725 12.0597C27.4376 11.9366 27.6531 11.7591 27.8188 11.5271C27.9845 11.295 28.0674 11.0133 28.0674 10.6819V9.77279C27.9632 9.81541 27.8519 9.85565 27.7336 9.89353C27.6199 9.93141 27.4968 9.96692 27.3643 10.0001C27.2364 10.0332 27.0991 10.064 26.9523 10.0924C26.8103 10.1208 26.6611 10.1468 26.5049 10.1705C26.2019 10.2179 25.9533 10.296 25.7591 10.4049C25.5697 10.5091 25.4277 10.6393 25.333 10.7955C25.243 10.947 25.1981 11.1175 25.1981 11.3069C25.1981 11.6099 25.3046 11.8419 25.5177 12.0029C25.7307 12.1639 26.003 12.2444 26.3344 12.2444Z" fill="#101828"/>
<path d="M13.4522 14.5455V3.63643H17.259V5.71029H17.3727C17.5715 4.94325 17.8864 4.38217 18.3173 4.02705C18.7529 3.67194 19.2619 3.49438 19.8443 3.49438C20.0147 3.49438 20.1828 3.50859 20.3485 3.537C20.519 3.56067 20.6823 3.59618 20.8386 3.64353V6.9887C20.6444 6.92241 20.4053 6.8727 20.1212 6.83955C19.8372 6.80641 19.5933 6.78984 19.3897 6.78984C19.0062 6.78984 18.6605 6.87743 18.3528 7.05262C18.0497 7.22308 17.8106 7.46455 17.6354 7.77705C17.4603 8.08482 17.3727 8.44704 17.3727 8.8637V14.5455H13.4522Z" fill="#101828"/>
<path d="M0 3.18182V0H12.642V3.18182H8.26705V14.5455H4.375V3.18182H0Z" fill="#101828"/>

  </symbol>
  <symbol id="icon-building" viewBox="0 0 20 20">
  <path d="M3.75 3.125C3.75 2.95924 3.81585 2.80027 3.93306 2.68306C4.05027 2.56585 4.20924 2.5 4.375 2.5H10.625C10.7908 2.5 10.9497 2.56585 11.0669 2.68306C11.1842 2.80027 11.25 2.95924 11.25 3.125V9.375C11.25 9.54076 11.1842 9.69973 11.0669 9.81694C10.9497 9.93415 10.7908 10 10.625 10H4.375C4.20924 10 4.05027 9.93415 3.93306 9.81694C3.81585 9.69973 3.75 9.54076 3.75 9.375V3.125Z" fill="currentColor"/>
  <path d="M1.25 2.5C1.25 1.83696 1.51339 1.20107 1.98223 0.732233C2.45107 0.263392 3.08696 0 3.75 0L11.25 0C11.913 0 12.5489 0.263392 13.0178 0.732233C13.4866 1.20107 13.75 1.83696 13.75 2.5V12.5C14.413 12.5 15.0489 12.7634 15.5178 13.2322C15.9866 13.7011 16.25 14.337 16.25 15V15.625C16.25 15.7908 16.3158 15.9497 16.4331 16.0669C16.5503 16.1842 16.7092 16.25 16.875 16.25C17.0408 16.25 17.1997 16.1842 17.3169 16.0669C17.4342 15.9497 17.5 15.7908 17.5 15.625V10H16.875C16.7092 10 16.5503 9.93415 16.4331 9.81694C16.3158 9.69973 16.25 9.54076 16.25 9.375V5.46875C16.25 5.30299 16.3158 5.14402 16.4331 5.02681C16.5503 4.9096 16.7092 4.84375 16.875 4.84375H18.7437C18.73 4.24875 18.6775 3.72625 18.4925 3.31625C18.3935 3.07785 18.2209 2.87729 18 2.74375C17.77 2.60625 17.42 2.5 16.875 2.5C16.7092 2.5 16.5503 2.43415 16.4331 2.31694C16.3158 2.19973 16.25 2.04076 16.25 1.875C16.25 1.70924 16.3158 1.55027 16.4331 1.43306C16.5503 1.31585 16.7092 1.25 16.875 1.25C17.58 1.24833 18.1683 1.38833 18.64 1.67C19.1187 1.955 19.4325 2.35875 19.6325 2.80375C20.0013 3.6225 20 4.635 20 5.405V9.37375C20.0002 9.45593 19.9841 9.53734 19.9528 9.61331C19.9214 9.68928 19.8754 9.75833 19.8174 9.8165C19.7593 9.87467 19.6904 9.92082 19.6145 9.95231C19.5386 9.98379 19.4572 10 19.375 10H18.75V15.625C18.75 16.1223 18.5525 16.5992 18.2008 16.9508C17.8492 17.3025 17.3723 17.5 16.875 17.5C16.3777 17.5 15.9008 17.3025 15.5492 16.9508C15.1975 16.5992 15 16.1223 15 15.625V15C15 14.6685 14.8683 14.3505 14.6339 14.1161C14.3995 13.8817 14.0815 13.75 13.75 13.75V18.75H14.375C14.5408 18.75 14.6997 18.8158 14.8169 18.9331C14.9342 19.0503 15 19.2092 15 19.375C15 19.5408 14.9342 19.6997 14.8169 19.8169C14.6997 19.9342 14.5408 20 14.375 20H0.625C0.45924 20 0.300269 19.9342 0.183058 19.8169C0.065848 19.6997 0 19.5408 0 19.375C0 19.2092 0.065848 19.0503 0.183058 18.9331C0.300269 18.8158 0.45924 18.75 0.625 18.75H1.25V2.5ZM12.5 2.5C12.5 2.16848 12.3683 1.85054 12.1339 1.61612C11.8995 1.3817 11.5815 1.25 11.25 1.25H3.75C3.41848 1.25 3.10054 1.3817 2.86612 1.61612C2.6317 1.85054 2.5 2.16848 2.5 2.5V18.75H12.5V2.5Z" fill="currentColor"/>
</symbol>
<symbol
  id="icon-diagram"
  viewBox="0 0 20 15"
  xmlns="http://www.w3.org/2000/svg"
>
  <path
    fill-rule="evenodd"
    clip-rule="evenodd"
    d="M7.5 1.875C7.5 1.37772 7.69754 0.900806 8.04917 0.549175C8.40081 0.197544 8.87772 0 9.375 0H10.625C11.1223 0 11.5992 0.197544 11.9508 0.549175C12.3025 0.900806 12.5 1.37772 12.5 1.875V3.125C12.5 3.62228 12.3025 4.09919 11.9508 4.45083C11.5992 4.80246 11.1223 5 10.625 5V6.25H17.5C17.6658 6.25 17.8247 6.31585 17.9419 6.43306C18.0592 6.55027 18.125 6.70924 18.125 6.875V8.125C18.125 8.29076 18.0592 8.44973 17.9419 8.56694C17.8247 8.68415 17.6658 8.75 17.5 8.75C17.3342 8.75 17.1753 8.68415 17.0581 8.56694C16.9408 8.44973 16.875 8.29076 16.875 8.125V7.5H10.625V8.125C10.625 8.29076 10.5592 8.44973 10.4419 8.56694C10.3247 8.68415 10.1658 8.75 10 8.75C9.83424 8.75 9.67527 8.68415 9.55806 8.56694C9.44085 8.44973 9.375 8.29076 9.375 8.125V7.5H3.125V8.125C3.125 8.29076 3.05915 8.44973 2.94194 8.56694C2.82473 8.68415 2.66576 8.75 2.5 8.75C2.33424 8.75 2.17527 8.68415 2.05806 8.56694C1.94085 8.44973 1.875 8.29076 1.875 8.125V6.875C1.875 6.70924 1.94085 6.55027 2.05806 6.43306C2.17527 6.31585 2.33424 6.25 2.5 6.25H9.375V5C8.87772 5 8.40081 4.80246 8.04917 4.45083C7.69754 4.09919 7.5 3.62228 7.5 3.125V1.875ZM10.625 3.75C10.7908 3.75 10.9497 3.68415 11.0669 3.56694C11.1842 3.44973 11.25 3.29076 11.25 3.125V1.875C11.25 1.70924 11.1842 1.55027 11.0669 1.43306C10.9497 1.31585 10.7908 1.25 10.625 1.25H9.375C9.20924 1.25 9.05027 1.31585 8.93306 1.43306C8.81585 1.55027 8.75 1.70924 8.75 1.875V3.125C8.75 3.29076 8.81585 3.44973 8.93306 3.56694C9.05027 3.68415 9.20924 3.75 9.375 3.75H10.625ZM0 11.875C0 11.3777 0.197544 10.9008 0.549175 10.5492C0.900805 10.1975 1.37772 10 1.875 10H3.125C3.62228 10 4.09919 10.1975 4.45083 10.5492C4.80246 10.9008 5 11.3777 5 11.875V13.125C5 13.6223 4.80246 14.0992 4.45083 14.4508C4.09919 14.8025 3.62228 15 3.125 15H1.875C1.37772 15 0.900805 14.8025 0.549175 14.4508C0.197544 14.0992 0 13.6223 0 13.125L0 11.875ZM1.875 11.25C1.70924 11.25 1.55027 11.3158 1.43306 11.4331C1.31585 11.5503 1.25 11.7092 1.25 11.875V13.125C1.25 13.2908 1.31585 13.4497 1.43306 13.5669C1.55027 13.6842 1.70924 13.75 1.875 13.75H3.125C3.29076 13.75 3.44973 13.6842 3.56694 13.5669C3.68415 13.4497 3.75 13.2908 3.75 13.125V11.875C3.75 11.7092 3.68415 11.5503 3.56694 11.4331C3.44973 11.3158 3.29076 11.25 3.125 11.25H1.875ZM7.5 11.875C7.5 11.3777 7.69754 10.9008 8.04917 10.5492C8.40081 10.1975 8.87772 10 9.375 10H10.625C11.1223 10 11.5992 10.1975 11.9508 10.5492C12.3025 10.9008 12.5 11.3777 12.5 11.875V13.125C12.5 13.6223 12.3025 14.0992 11.9508 14.4508C11.5992 14.8025 11.1223 15 10.625 15H9.375C8.87772 15 8.40081 14.8025 8.04917 14.4508C7.69754 14.0992 7.5 13.6223 7.5 13.125V11.875ZM9.375 11.25C9.20924 11.25 9.05027 11.3158 8.93306 11.4331C8.81585 11.5503 8.75 11.7092 8.75 11.875V13.125C8.75 13.2908 8.81585 13.4497 8.93306 13.5669C9.05027 13.6842 9.20924 13.75 9.375 13.75H10.625C10.7908 13.75 10.9497 13.6842 11.0669 13.5669C11.1842 13.4497 11.25 13.2908 11.25 13.125V11.875C11.25 11.7092 11.1842 11.5503 11.0669 11.4331C10.9497 11.3158 10.7908 11.25 10.625 11.25H9.375ZM15 11.875C15 11.3777 15.1975 10.9008 15.5492 10.5492C15.9008 10.1975 16.3777 10 16.875 10H18.125C18.6223 10 19.0992 10.1975 19.4508 10.5492C19.8025 10.9008 20 11.3777 20 11.875V13.125C20 13.6223 19.8025 14.0992 19.4508 14.4508C19.0992 14.8025 18.6223 15 18.125 15H16.875C16.3777 15 15.9008 14.8025 15.5492 14.4508C15.1975 14.0992 15 13.6223 15 13.125V11.875ZM16.875 11.25C16.7092 11.25 16.5503 11.3158 16.4331 11.4331C16.3158 11.5503 16.25 11.7092 16.25 11.875V13.125C16.25 13.2908 16.3158 13.4497 16.4331 13.5669C16.5503 13.6842 16.7092 13.75 16.875 13.75H18.125C18.2908 13.75 18.4497 13.6842 18.5669 13.5669C18.6842 13.4497 18.75 13.2908 18.75 13.125V11.875C18.75 11.7092 18.6842 11.5503 18.5669 11.4331C18.4497 11.3158 18.2908 11.25 18.125 11.25H16.875Z"
    fill="currentColor"
  />
</symbol>
<symbol id="icon-car" viewBox="0 0 15 13">
  <path d="M14.9875 4.87422C14.9786 4.8329 14.9655 4.79259 14.9484 4.75391L13.4727 1.31016C13.1324 0.514453 12.3047 0 11.3629 0H3.63712C2.6961 0 1.86758 0.514453 1.52774 1.31016L0.0503963 4.75391C0.0167994 4.83158 -0.000357347 4.91537 5.64172e-06 5V11.875C5.64172e-06 12.0408 0.0658538 12.1997 0.183064 12.3169C0.300274 12.4342 0.459245 12.5 0.625006 12.5H1.87501C2.04077 12.5 2.19974 12.4342 2.31695 12.3169C2.43416 12.1997 2.50001 12.0408 2.50001 11.875V11.25H12.5V11.875C12.5 12.0408 12.5659 12.1997 12.6831 12.3169C12.8003 12.4342 12.9592 12.5 13.125 12.5H14.375C14.5408 12.5 14.6997 12.4342 14.8169 12.3169C14.9342 12.1997 15 12.0408 15 11.875V5C15.0001 4.95776 14.9959 4.91562 14.9875 4.87422ZM3.12501 8.75C2.87778 8.75 2.6361 8.67669 2.43054 8.53934C2.22498 8.40199 2.06477 8.20676 1.97016 7.97835C1.87555 7.74995 1.85079 7.49861 1.89902 7.25614C1.94726 7.01366 2.06631 6.79093 2.24112 6.61612C2.41594 6.4413 2.63867 6.32225 2.88114 6.27402C3.12362 6.22579 3.37495 6.25054 3.60336 6.34515C3.83177 6.43976 4.02699 6.59998 4.16434 6.80554C4.30169 7.0111 4.37501 7.25277 4.37501 7.5C4.37501 7.83152 4.24331 8.14946 4.00889 8.38388C3.77447 8.6183 3.45653 8.75 3.12501 8.75ZM11.875 8.75C11.6278 8.75 11.3861 8.67669 11.1805 8.53934C10.975 8.40199 10.8148 8.20676 10.7202 7.97835C10.6255 7.74995 10.6008 7.49861 10.649 7.25614C10.6973 7.01366 10.8163 6.79093 10.9911 6.61612C11.1659 6.4413 11.3887 6.32225 11.6311 6.27402C11.8736 6.22579 12.125 6.25054 12.3534 6.34515C12.5818 6.43976 12.777 6.59998 12.9143 6.80554C13.0517 7.0111 13.125 7.25277 13.125 7.5C13.125 7.83152 12.9933 8.14946 12.7589 8.38388C12.5245 8.6183 12.2065 8.75 11.875 8.75ZM1.57266 4.375L2.6754 1.80273C2.8168 1.47227 3.20313 1.25 3.63712 1.25H11.3629C11.7965 1.25 12.1832 1.47227 12.3246 1.80273L13.4273 4.375H1.57266Z" fill="currentColor"/>
</symbol>
<symbol id="icon-star" viewBox="0 0 15 14">
  <path
    d="M6.64762 0.266635C6.83522 -0.0889379 7.34446 -0.088937 7.53207 0.266636L9.42031 3.84551C9.49265 3.98264 9.62452 4.07844 9.77728 4.10487L13.7645 4.79476C14.1606 4.8633 14.318 5.34762 14.0378 5.63592L11.2176 8.53767C11.1095 8.64885 11.0592 8.80387 11.0812 8.95733L11.6572 12.9626C11.7145 13.3605 11.3025 13.6598 10.9417 13.4824L7.31047 11.6969C7.17134 11.6285 7.00835 11.6285 6.86922 11.6969L3.23799 13.4824C2.87722 13.6598 2.46523 13.3605 2.52246 12.9626L3.09845 8.95733C3.12052 8.80387 3.07015 8.64885 2.9621 8.53767L0.141883 5.63592C-0.138315 5.34762 0.0190498 4.8633 0.415192 4.79476L4.4024 4.10487C4.55517 4.07844 4.68704 3.98264 4.75938 3.84551L6.64762 0.266635Z"
    fill="currentColor"
  />
</symbol>
<symbol id="icon-map" viewBox="0 0 16 16">
  <path
    fill-rule="evenodd"
    clip-rule="evenodd"
    d="M15.817 0.112823C15.8743 0.159759 15.9204 0.218822 15.952 0.285748C15.9837 0.352674 16 0.425792 16 0.499823V14.4998C15.9999 14.6154 15.9598 14.7273 15.8866 14.8167C15.8133 14.906 15.7113 14.9672 15.598 14.9898L10.598 15.9898C10.5333 16.0028 10.4667 16.0028 10.402 15.9898L5.5 15.0098L0.598 15.9898C0.525489 16.0043 0.450665 16.0025 0.378921 15.9846C0.307176 15.9667 0.240296 15.9331 0.183099 15.8863C0.125903 15.8394 0.0798134 15.7804 0.0481518 15.7136C0.0164902 15.6468 4.46527e-05 15.5738 0 15.4998L0 1.49982C6.9782e-05 1.38428 0.0401561 1.27232 0.113443 1.18299C0.186731 1.09366 0.288695 1.03247 0.402 1.00982L5.402 0.00982311C5.46669 -0.00310763 5.53331 -0.00310763 5.598 0.00982311L10.5 0.989823L15.402 0.00982311C15.4745 -0.00476108 15.5493 -0.00308756 15.6211 0.0147231C15.6928 0.0325338 15.7597 0.0660382 15.817 0.112823ZM10 1.90982L6 1.10982V14.0898L10 14.8898V1.90982ZM11 14.8898L15 14.0898V1.10982L11 1.90982V14.8898ZM5 14.0898V1.10982L1 1.90982V14.8898L5 14.0898Z"
    fill="currentColor"
  />
</symbol>
<symbol id="icon-close" viewBox="0 0 24 24">
  <path
    d="M17.25 17.25L6.75 6.75M17.25 6.75L6.75 17.25"
    stroke="currentColor"
    stroke-width="1.5"
    stroke-linecap="round"
    stroke-linejoin="round"
    fill="none"
  />
</symbol>
</svg>
