<svg xmlns="http://www.w3.org/2000/svg" viewBox="0 0 64 64">
  <rect width="64" height="64" rx="14" fill="#F7F7F7"/>
  <path
    d="M13 35h5l5-12h20c5.5 0 10 4.5 10 10v2h3c1.1 0 2 .9 2 2v7H10v-6c0-1.7 1.3-3 3-3Z"
    fill="#829B91"
  />
  <path
    d="M25 27h9v8h-12l3-8Zm13 0h5c3.3 0 6 2.7 6 6v2H38v-8Z"
    fill="#FFFFFF"
  />
  <path
    d="M11 44h47"
    stroke="#101828"
    stroke-width="3"
    stroke-linecap="round"
  />
  <circle cx="22" cy="45" r="6" fill="#101828"/>
  <circle cx="47" cy="45" r="6" fill="#101828"/>
  <circle cx="22" cy="45" r="2.5" fill="#DADDE1"/>
  <circle cx="47" cy="45" r="2.5" fill="#DADDE1"/>
  <path
    d="M15 36h39"
    stroke="#6D7B75"
    stroke-width="2"
    stroke-linecap="round"
  />
</svg>
